<?xml version="1.0" encoding="UTF-8"?>
<svg xmlns="http://www.w3.org/2000/svg" xmlns:xlink="http://www.w3.org/1999/xlink" width="595pt" height="842pt" viewBox="0 0 595 842" version="1.1">
<defs>
<clipPath id="clip1">
  <path d="M 0 771.855469 L 71 771.855469 L 71 842 L 0 842 Z M 0 771.855469 "/>
</clipPath>
<clipPath id="clip2">
  <path d="M 199 781 L 239.984375 781 L 239.984375 835 L 199 835 Z M 199 781 "/>
</clipPath>
</defs>
<g id="surface1">
<g clip-path="url(#clip1)" clip-rule="nonzero">
<path style=" stroke:none;fill-rule:nonzero;fill:rgb(13.729858%,12.159729%,12.548828%);fill-opacity:1;" d="M 60.839844 808.746094 C 60.070312 809.773438 55.21875 816.273438 49.515625 821.949219 L 49.515625 821.953125 C 43.839844 827.65625 38.066406 831.96875 37.039062 832.738281 L 37.019531 832.746094 C 35.957031 833.628906 34.1875 833.59375 33.101562 832.746094 C 32.074219 831.976562 26.035156 827.394531 20.355469 821.695312 L 20.355469 821.691406 C 14.652344 816.015625 10.070312 809.972656 9.300781 808.945312 C 8.417969 807.878906 8.457031 806.113281 9.300781 805.027344 C 10.074219 804 14.652344 797.957031 20.355469 792.28125 L 20.359375 792.277344 C 26.035156 786.574219 32.078125 781.992188 33.101562 781.222656 C 34.191406 780.378906 35.957031 780.34375 37.023438 781.222656 C 38.050781 781.992188 44.09375 786.574219 49.769531 792.277344 L 49.773438 792.277344 C 55.472656 797.957031 60.070312 804.175781 60.839844 805.203125 L 60.839844 805.207031 C 61.722656 806.273438 61.683594 807.660156 60.839844 808.746094 Z M 68.820312 804.660156 C 66.246094 802.296875 58.265625 797.101562 51.582031 790.417969 C 44.953125 783.789062 39.664062 775.753906 37.339844 773.179688 C 35.578125 771.417969 34.5625 771.417969 32.800781 773.179688 C 30.472656 775.753906 25.191406 783.789062 18.558594 790.417969 C 11.878906 797.101562 3.898438 802.507812 1.320312 804.660156 C -0.441406 806.421875 -0.441406 807.4375 1.320312 809.199219 C 3.898438 811.492188 11.929688 816.808594 18.5625 823.441406 C 25.242188 830.121094 30.476562 838.101562 32.800781 840.679688 C 34.5625 842.441406 35.578125 842.441406 37.339844 840.679688 C 39.636719 838.101562 44.898438 830.121094 51.582031 823.441406 C 58.210938 816.808594 66.296875 811.316406 68.820312 809.199219 C 70.582031 807.4375 70.582031 806.421875 68.820312 804.660156 "/>
</g>
<path style=" stroke:none;fill-rule:nonzero;fill:rgb(13.729858%,12.159729%,12.548828%);fill-opacity:1;" d="M 34.394531 812.449219 C 26.347656 812.449219 19.835938 809.859375 19.820312 806.664062 C 19.808594 804.46875 22.875 802.5625 27.417969 801.582031 L 30.878906 803.808594 C 27.335938 804.441406 24.914062 805.738281 24.914062 807.234375 C 24.914062 809.355469 29.800781 811.078125 35.828125 811.078125 C 41.007812 811.078125 46.820312 809.355469 46.820312 807.234375 C 46.792969 805.898438 45.246094 805.121094 43.742188 804.375 L 41.679688 804.84375 L 40.59375 801.84375 L 47.289062 803.480469 L 45.777344 803.863281 C 45.777344 803.863281 48.332031 805.1875 48.875 806.664062 C 49.9375 809.882812 42.957031 812.449219 34.394531 812.449219 Z M 32.761719 824.023438 L 33.234375 813.089844 C 33.980469 813.214844 36.238281 813.195312 36.984375 813.082031 L 37.480469 824.023438 C 36.242188 824.355469 33.949219 824.296875 32.761719 824.023438 Z M 35.015625 788.414062 L 38.886719 799.585938 L 36.304688 799.585938 L 36.785156 810.222656 C 35.496094 810.445312 34.554688 810.402344 33.292969 810.203125 L 33.75 799.585938 L 31.113281 799.585938 Z M 58.984375 805.335938 C 58.269531 804.382812 54.007812 798.609375 48.714844 793.34375 L 48.710938 793.339844 C 43.445312 788.046875 37.835938 783.796875 36.882812 783.082031 L 36.863281 783.0625 C 35.875 782.246094 34.253906 782.300781 33.246094 783.082031 C 32.292969 783.796875 26.683594 788.050781 21.417969 793.339844 L 21.414062 793.34375 C 16.125 798.613281 11.871094 804.21875 11.15625 805.171875 C 10.371094 806.179688 10.339844 807.820312 11.15625 808.808594 C 11.871094 809.761719 16.121094 815.371094 21.414062 820.636719 L 21.417969 820.640625 C 26.683594 825.929688 32.289062 830.183594 33.242188 830.898438 C 34.25 831.683594 35.890625 831.71875 36.878906 830.898438 L 36.898438 830.886719 C 37.851562 830.171875 43.207031 826.171875 48.472656 820.878906 L 48.476562 820.878906 C 53.769531 815.609375 58.269531 809.578125 58.984375 808.625 C 59.769531 807.613281 59.804688 806.328125 58.984375 805.339844 L 58.984375 805.335938 "/>
<path style=" stroke:none;fill-rule:evenodd;fill:rgb(13.729858%,12.159729%,12.548828%);fill-opacity:1;" d="M 47.148438 836.441406 L 46.644531 836.441406 L 46.644531 835.804688 L 47.042969 835.804688 C 47.257812 835.804688 47.550781 835.824219 47.550781 836.097656 C 47.550781 836.390625 47.402344 836.441406 47.148438 836.441406 Z M 48.152344 836.15625 C 48.152344 835.550781 47.753906 835.359375 47.066406 835.359375 L 46.082031 835.359375 L 46.082031 838.003906 L 46.644531 838.003906 L 46.644531 836.890625 L 46.914062 836.890625 L 47.523438 838.003906 L 48.195312 838.003906 L 47.515625 836.84375 C 47.871094 836.8125 48.152344 836.640625 48.152344 836.15625 Z M 47.054688 838.570312 L 47.054688 838.5625 C 46.082031 838.570312 45.292969 837.8125 45.292969 836.679688 C 45.292969 835.550781 46.082031 834.796875 47.054688 834.796875 C 48.003906 834.796875 48.8125 835.550781 48.8125 836.679688 C 48.8125 837.8125 48.003906 838.570312 47.054688 838.570312 Z M 47.054688 834.226562 C 45.75 834.226562 44.589844 835.128906 44.589844 836.679688 C 44.589844 838.230469 45.75 839.140625 47.054688 839.140625 C 48.351562 839.140625 49.511719 838.230469 49.511719 836.679688 C 49.511719 835.128906 48.351562 834.226562 47.054688 834.226562 "/>
<path style=" stroke:none;fill-rule:nonzero;fill:rgb(13.729858%,12.159729%,12.548828%);fill-opacity:1;" d="M 79.976562 834.140625 L 79.976562 781.117188 L 94.664062 781.117188 L 94.664062 834.140625 L 79.976562 834.140625 "/>
<path style=" stroke:none;fill-rule:nonzero;fill:rgb(13.729858%,12.159729%,12.548828%);fill-opacity:1;" d="M 102.371094 834.140625 L 102.371094 781.117188 L 142.761719 781.117188 L 142.761719 791.398438 L 117.058594 791.398438 L 117.058594 802.339844 L 140.703125 802.339844 L 140.703125 812.621094 L 117.058594 812.621094 L 117.058594 823.855469 L 142.761719 823.855469 L 142.761719 834.140625 L 102.371094 834.140625 "/>
<path style=" stroke:none;fill-rule:nonzero;fill:rgb(13.729858%,12.159729%,12.548828%);fill-opacity:1;" d="M 150.992188 834.140625 L 150.992188 781.117188 L 191.371094 781.117188 L 191.371094 791.398438 L 165.675781 791.398438 L 165.675781 802.339844 L 189.3125 802.339844 L 189.3125 812.621094 L 165.675781 812.621094 L 165.675781 823.855469 L 191.371094 823.855469 L 191.371094 834.140625 L 150.992188 834.140625 "/>
<g clip-path="url(#clip2)" clip-rule="nonzero">
<path style=" stroke:none;fill-rule:nonzero;fill:rgb(13.729858%,12.159729%,12.548828%);fill-opacity:1;" d="M 199.59375 834.140625 L 199.59375 781.117188 L 239.984375 781.117188 L 239.984375 791.398438 L 214.289062 791.398438 L 214.289062 802.339844 L 237.929688 802.339844 L 237.929688 812.621094 L 214.289062 812.621094 L 214.289062 823.855469 L 239.984375 823.855469 L 239.984375 834.140625 L 199.59375 834.140625 "/>
</g>
</g>
</svg>
